<?xml version="1.0" standalone="no"?>
<!DOCTYPE svg PUBLIC "-//W3C//DTD SVG 20010904//EN"
 "http://www.w3.org/TR/2001/REC-SVG-20010904/DTD/svg10.dtd">
<svg version="1.0" xmlns="http://www.w3.org/2000/svg"
 width="850.000000pt" height="779.000000pt" viewBox="0 0 850.000000 779.000000"
 preserveAspectRatio="xMidYMid meet">
<metadata>
Created by potrace 1.16, written by Peter Selinger 2001-2019
</metadata>
<g transform="translate(0.000000,779.000000) scale(0.100000,-0.100000)"
fill="#000000" stroke="none">
<path d="M1500 7464 c-17 -15 -40 -44 -51 -66 -19 -38 -20 -42 -4 -75 47 -99
114 -349 240 -898 96 -416 149 -583 191 -599 28 -11 69 48 119 167 26 61 107
254 180 427 225 532 266 644 300 809 20 99 17 213 -6 236 -24 25 -84 30 -132
11 l-42 -16 3 -108 c5 -122 -12 -229 -59 -390 -66 -227 -277 -762 -299 -762
-12 0 -45 133 -126 499 -138 630 -169 735 -225 775 -33 22 -52 20 -89 -10z"/>
<path d="M4258 7374 c-27 -8 -48 -16 -48 -19 0 -2 7 -30 15 -62 8 -31 15 -70
15 -85 0 -26 -2 -27 -62 -30 -58 -3 -64 -5 -76 -32 -20 -41 1 -59 70 -60 l53
-1 -5 -80 c-3 -44 -5 -130 -5 -192 0 -125 10 -149 76 -188 49 -29 207 -29 238
-1 43 39 17 92 -41 83 -80 -11 -108 33 -108 171 0 49 3 117 7 152 l6 63 94 -6
93 -5 15 29 c31 59 -22 87 -139 73 l-55 -7 2 86 c2 65 -2 90 -13 101 -23 22
-80 27 -132 10z"/>
<path d="M3851 7203 c-26 -9 -66 -37 -94 -65 -36 -36 -48 -44 -44 -28 8 31
-11 78 -36 86 -27 9 -98 8 -127 -1 -15 -5 -19 -12 -14 -23 18 -42 16 -235 -6
-401 -12 -94 -19 -180 -15 -191 3 -11 16 -22 28 -26 28 -6 108 11 164 36 l42
19 -19 44 c-26 58 -35 144 -25 242 6 72 10 81 46 120 67 73 142 95 185 54 20
-19 24 -19 51 -6 67 35 82 92 33 129 -35 26 -115 31 -169 11z"/>
<path d="M4867 7186 c-99 -27 -129 -101 -57 -140 l36 -19 43 28 c124 83 341 8
341 -118 0 -24 0 -24 -49 -11 -184 47 -378 14 -439 -77 -20 -28 -23 -44 -20
-91 5 -72 35 -117 111 -168 133 -90 312 -123 417 -76 11 4 19 -2 27 -23 16
-43 67 -71 129 -71 28 0 53 3 56 6 4 3 -4 29 -17 57 -32 74 -45 144 -55 313
-5 82 -14 166 -20 186 -18 62 -71 129 -126 160 -95 53 -269 73 -377 44z m320
-368 c23 -8 44 -16 46 -18 2 -3 7 -42 10 -87 l6 -82 -36 -12 c-53 -17 -179 -7
-229 19 -105 54 -125 149 -41 188 38 17 177 12 244 -8z"/>
<path d="M2875 7156 c-83 -19 -140 -46 -208 -97 -64 -48 -139 -139 -169 -207
-65 -144 -77 -360 -27 -458 45 -88 126 -123 237 -104 166 29 341 129 482 277
161 167 201 331 115 461 -72 109 -264 166 -430 128z m190 -145 c77 -35 105
-85 105 -184 0 -80 -32 -149 -101 -222 -63 -67 -125 -107 -206 -134 -83 -28
-141 -27 -183 2 -56 37 -75 80 -74 168 3 178 96 321 244 372 63 22 165 21 215
-2z"/>
<path d="M5599 7124 c-14 -4 -14 -10 2 -57 25 -76 38 -205 45 -447 7 -240 12
-276 51 -314 30 -30 123 -61 158 -52 23 6 24 7 9 43 -31 72 -54 210 -61 349
-6 140 -6 141 20 179 65 96 153 98 182 4 9 -26 19 -24 57 10 30 27 33 35 32
85 0 40 -6 64 -20 83 -80 108 -213 93 -277 -30 l-15 -29 -7 51 c-7 50 -31 93
-63 110 -22 11 -92 20 -113 15z"/>
<path d="M6375 6995 c-95 -35 -186 -136 -218 -240 -19 -62 -15 -287 6 -365 69
-254 275 -534 459 -625 120 -59 180 -45 259 60 70 91 105 266 96 480 -10 220
-50 366 -137 498 -93 143 -186 199 -335 204 -61 2 -103 -2 -130 -12z m195
-191 c39 -12 66 -29 104 -67 105 -107 147 -234 149 -447 1 -157 -15 -226 -68
-287 -30 -35 -37 -38 -88 -38 -47 0 -62 5 -111 39 -108 74 -211 239 -242 386
-17 81 -14 215 6 283 15 49 65 106 115 128 49 23 67 23 135 3z"/>
<path d="M3432 6440 c-141 -20 -289 -76 -396 -149 -142 -99 -236 -266 -236
-422 0 -88 -86 -236 -153 -264 -95 -39 -570 -145 -651 -145 -102 0 -276 81
-368 171 -64 63 -108 144 -116 215 l-5 44 -58 0 -59 0 0 -205 0 -205 -27 6
c-56 13 -210 76 -280 115 -40 21 -75 39 -78 39 -3 0 -5 -45 -5 -101 l0 -101
-33 7 c-17 4 -81 17 -142 31 -60 13 -113 24 -117 24 -5 0 -8 -53 -8 -118 l0
-117 -49 -23 c-65 -29 -144 -116 -168 -184 -17 -51 -18 -140 -18 -2083 0
-1699 2 -2038 14 -2078 27 -92 106 -176 202 -215 41 -16 143 -17 1520 -20
l1476 -2 5 -79 c5 -86 23 -121 81 -163 l32 -23 505 0 505 0 32 23 c58 42 76
77 81 163 l5 79 1476 2 c1377 3 1479 4 1520 20 96 39 175 123 202 215 12 40
14 379 14 2078 0 1973 -1 2032 -19 2085 -26 76 -120 170 -193 194 l-53 18 0
114 c0 63 -4 114 -9 114 -4 0 -57 -11 -117 -24 -60 -13 -126 -27 -146 -30
l-38 -7 0 101 c0 56 -3 100 -7 98 -5 -2 -55 -27 -113 -55 -58 -29 -139 -63
-180 -76 l-75 -24 -3 198 -2 199 -59 0 -58 0 -6 -45 c-21 -147 -175 -291 -381
-354 -37 -12 -88 -21 -112 -21 -62 0 -229 33 -454 91 -189 48 -196 51 -238 92
-65 64 -99 143 -112 262 -18 171 -94 293 -245 394 -147 98 -314 144 -525 144
-168 0 -272 -23 -415 -92 -110 -54 -213 -138 -262 -216 -31 -50 -39 -54 -48
-24 -9 28 -120 144 -171 180 -76 52 -184 100 -281 125 -108 27 -280 38 -381
24z m301 -124 c206 -40 369 -145 444 -288 l28 -53 3 -1908 2 -1909 -59 54
c-345 312 -1037 249 -1273 -117 -46 -70 -64 -129 -77 -248 -8 -67 -18 -102
-42 -148 -62 -116 -197 -210 -374 -261 -68 -19 -103 -23 -230 -23 -127 0 -162
4 -230 23 -178 51 -311 145 -376 264 l-34 63 -3 1908 -2 1909 59 -54 c345
-312 1037 -249 1273 117 46 70 64 129 77 247 11 100 40 166 103 234 79 86 223
160 368 189 88 18 252 18 343 1z m1407 4 c215 -34 399 -149 470 -295 22 -44
32 -84 39 -150 20 -190 103 -316 278 -423 320 -193 814 -159 1072 74 l61 56
-2 -1909 -3 -1908 -34 -63 c-64 -119 -200 -213 -376 -264 -68 -19 -104 -23
-235 -23 -133 0 -167 3 -235 23 -109 32 -208 86 -282 155 -85 79 -120 152
-132 272 -12 111 -39 187 -97 264 -133 177 -382 282 -669 282 -242 0 -449 -73
-600 -212 l-45 -42 2 1909 3 1909 29 55 c73 139 259 255 464 290 69 11 218 11
292 0z m-3867 -924 l117 -40 0 -1762 c0 -1156 4 -1780 10 -1815 23 -119 114
-252 226 -330 75 -51 184 -100 277 -124 l91 -23 -65 -7 c-35 -5 -128 -8 -206
-7 -202 1 -375 36 -530 107 l-73 34 0 2011 c0 1913 1 2012 18 2005 9 -5 70
-26 135 -49z m6167 -1957 l0 -2010 -74 -35 c-201 -93 -478 -126 -781 -94 -5 1
31 12 80 24 249 65 412 197 493 400 16 37 17 198 22 1839 l5 1798 104 34 c57
20 111 40 120 45 9 5 19 10 24 10 4 0 7 -905 7 -2011z m-6442 -97 l2 -1982 78
-39 c103 -52 231 -96 355 -123 87 -19 133 -22 312 -22 185 0 228 3 365 27 85
15 241 49 345 76 567 145 671 170 785 190 161 28 395 38 526 21 127 -16 256
-49 367 -95 l87 -37 0 -85 c0 -76 -2 -84 -17 -79 -106 30 -343 56 -563 63
-307 9 -514 -7 -1180 -87 -437 -53 -603 -68 -837 -76 -268 -9 -541 12 -750 58
l-53 11 0 2097 0 2097 88 -17 87 -16 3 -1982z m6752 -81 l0 -2099 -112 -21
c-200 -37 -305 -45 -588 -45 -305 1 -408 9 -980 79 -201 25 -437 52 -525 60
-233 23 -611 30 -780 16 -137 -12 -356 -44 -389 -57 -14 -5 -16 4 -16 84 l0
90 88 35 c196 77 352 102 587 94 195 -7 341 -31 625 -104 842 -214 855 -217
1155 -217 179 0 225 3 312 22 124 27 252 71 356 123 l77 39 0 1980 c0 1576 3
1981 13 1984 9 3 86 19 170 35 4 0 7 -944 7 -2098z m158 1875 c38 -20 78 -65
96 -108 14 -33 16 -244 16 -1960 0 -1850 -1 -1925 -19 -1963 -23 -49 -64 -89
-113 -109 -31 -13 -82 -16 -300 -14 -145 1 -243 3 -218 5 89 7 307 42 403 64
l97 22 0 2039 c0 1121 2 2038 5 2038 4 0 18 -6 33 -14z m-7115 -4085 c123 -28
253 -49 362 -60 75 -7 49 -9 -158 -10 -203 -1 -254 2 -285 15 -49 20 -90 60
-113 109 -18 38 -19 112 -19 1965 0 1841 1 1927 19 1965 10 22 35 56 57 74
l39 35 3 -2036 2 -2036 93 -21z m3000 1220 c172 -45 329 -158 385 -278 27 -57
27 -62 30 -282 3 -212 2 -223 -15 -216 -166 67 -303 101 -473 116 -242 22
-550 -21 -980 -137 -20 -6 -13 5 36 57 93 98 128 176 143 320 11 114 44 184
119 258 57 56 174 125 256 151 138 44 354 49 499 11z m1431 -1 c175 -45 326
-152 386 -273 23 -48 32 -85 40 -161 13 -126 54 -217 138 -305 32 -34 56 -61
54 -61 -2 0 -85 20 -185 45 -581 142 -908 137 -1289 -20 -17 -7 -18 7 -18 204
0 183 3 217 19 261 60 156 240 281 468 325 103 19 281 13 387 -15z m361 -1154
c83 -9 296 -34 475 -56 298 -36 569 -65 695 -73 28 -2 -401 -4 -952 -5 l-1003
-2 0 -118 c0 -78 -4 -122 -12 -130 -17 -17 -959 -17 -976 0 -8 8 -12 52 -12
130 l0 118 -1012 2 c-557 1 -990 3 -963 5 126 8 397 37 695 73 555 68 602 72
925 77 358 6 528 -8 763 -62 21 -5 22 -10 22 -105 l0 -100 60 0 60 0 0 100 0
99 38 10 c102 27 355 59 507 64 137 4 543 -12 690 -27z m-4846 -246 c34 -6
571 -10 1497 -10 l1444 0 0 -40 0 -40 -1465 0 c-1606 0 -1503 -4 -1568 58 -25
24 -57 72 -57 86 0 3 21 -6 48 -19 26 -14 71 -29 101 -35z m7258 23 c-21 -39
-65 -79 -109 -97 -33 -14 -201 -16 -1503 -16 l-1465 0 0 40 0 40 1444 0 c928
0 1462 4 1497 10 30 6 74 21 99 34 25 12 46 22 48 20 2 -1 -3 -15 -11 -31z
m-3197 -324 c0 -19 -5 -40 -12 -47 -17 -17 -959 -17 -976 0 -7 7 -12 28 -12
48 l0 35 500 0 500 0 0 -36z"/>
<path d="M2655 4708 c-3 -7 -131 -390 -284 -850 l-279 -838 118 0 119 0 60
183 59 182 356 3 355 2 58 -182 59 -183 122 -3 c81 -2 122 1 122 8 0 10 -278
864 -476 1463 l-76 227 -154 0 c-115 0 -156 -3 -159 -12z m295 -667 c73 -227
134 -420 137 -427 4 -12 -43 -14 -281 -14 -157 0 -286 3 -286 7 0 5 91 294
272 863 11 34 11 35 19 10 5 -14 67 -211 139 -439z"/>
<path d="M5521 4927 c4 -23 8 -74 9 -113 l0 -71 -196 -6 c-108 -4 -288 -4
-400 0 l-204 6 2 -264 3 -264 110 0 110 0 3 158 3 157 704 0 705 0 0 -155 0
-155 114 0 114 0 -3 258 -3 257 -273 -4 c-151 -2 -339 0 -418 4 l-143 7 5 77
c3 42 9 88 13 103 6 25 4 27 -37 32 -24 3 -85 7 -135 10 l-91 5 8 -42z"/>
<path d="M6085 4359 c-18 -6 -223 -9 -525 -7 l-495 3 0 -100 0 -100 423 -5
423 -5 -48 -46 c-26 -26 -75 -68 -107 -94 l-60 -48 -76 6 -76 5 4 -89 4 -89
-431 0 -431 0 0 -105 c0 -77 3 -105 13 -106 6 0 200 0 430 1 l417 1 2 -128 c5
-232 4 -244 -23 -266 -22 -18 -35 -19 -156 -14 -73 3 -133 4 -133 1 0 -3 8
-21 19 -42 10 -20 28 -67 40 -105 27 -81 30 -82 182 -73 204 12 246 28 287
107 23 43 24 49 20 279 l-3 235 420 2 c231 1 426 2 433 3 9 0 12 28 12 105 l0
105 -435 0 c-239 0 -435 4 -435 8 0 5 37 34 83 65 45 31 146 107 224 169 79
62 154 121 168 131 42 30 33 60 -43 138 -70 71 -76 74 -127 58z"/>
</g>
</svg>
