<?xml version="1.0" standalone="no"?>
<!DOCTYPE svg PUBLIC "-//W3C//DTD SVG 20010904//EN"
 "http://www.w3.org/TR/2001/REC-SVG-20010904/DTD/svg10.dtd">
<svg version="1.0" xmlns="http://www.w3.org/2000/svg"
 width="559.000000pt" height="447.000000pt" viewBox="0 0 559.000000 447.000000"
 preserveAspectRatio="xMidYMid meet">
<metadata>
Created by potrace 1.16, written by Peter Selinger 2001-2019
</metadata>
<g transform="translate(0.000000,447.000000) scale(0.100000,-0.100000)"
fill="#000000" stroke="none">
<path d="M972 4344 c-42 -29 -45 -50 -18 -108 14 -29 63 -183 109 -342 118
-406 141 -456 186 -409 26 28 325 626 350 702 12 34 21 83 21 108 0 40 -3 47
-27 56 -18 7 -41 8 -63 2 -34 -8 -34 -8 -31 -59 5 -100 -37 -226 -165 -491
-35 -73 -69 -131 -74 -128 -11 7 -43 111 -110 360 -58 219 -84 290 -114 310
-26 19 -36 19 -64 -1z"/>
<path d="M2754 4304 c-8 -3 -10 -20 -7 -44 l5 -39 -43 -3 c-31 -2 -44 -7 -44
-18 0 -11 13 -16 43 -18 41 -3 43 -5 38 -30 -18 -100 -17 -119 7 -148 23 -26
32 -29 101 -32 51 -3 81 0 91 8 22 18 9 30 -34 30 -53 0 -61 13 -61 97 l0 72
67 3 c55 2 68 6 71 21 3 15 -5 17 -62 17 l-65 0 -3 43 -3 42 -45 2 c-25 1 -50
0 -56 -3z"/>
<path d="M2496 4225 c-22 -9 -48 -23 -58 -32 -17 -15 -18 -15 -18 4 0 23 -18
33 -60 33 -51 0 -59 -7 -48 -44 8 -25 6 -60 -7 -136 -10 -64 -13 -106 -7 -112
8 -8 125 12 137 24 3 3 -2 19 -11 37 -24 48 -13 119 23 148 34 28 87 39 117
25 39 -17 101 31 67 52 -23 14 -99 15 -135 1z"/>
<path d="M3170 4224 c-38 -7 -80 -25 -80 -35 0 -5 10 -15 23 -24 21 -13 28
-13 66 2 77 30 211 -7 211 -58 0 -16 -5 -17 -32 -11 -18 4 -79 7 -135 7 -88 0
-105 -3 -130 -21 -39 -29 -41 -66 -6 -98 52 -49 202 -92 283 -83 38 5 48 2 58
-13 13 -22 90 -46 103 -33 6 6 2 23 -7 43 -14 27 -29 121 -33 207 -2 30 -64
83 -115 97 -56 16 -167 27 -206 20z m191 -174 c34 -9 37 -14 41 -50 3 -39 2
-40 -32 -47 -19 -3 -59 -1 -89 5 -85 18 -128 55 -101 87 15 18 125 21 181 5z"/>
<path d="M1837 4190 c-148 -38 -257 -166 -257 -303 0 -67 16 -98 62 -120 53
-26 136 -9 263 53 326 159 359 367 60 376 -49 2 -107 -1 -128 -6z m180 -77
c39 -28 47 -46 39 -87 -14 -75 -149 -169 -263 -182 -42 -6 -53 -3 -77 18 -24
21 -28 31 -28 72 2 89 75 171 175 197 50 13 126 4 154 -18z"/>
<path d="M3626 4138 c9 -26 18 -96 21 -173 4 -89 10 -137 20 -153 16 -26 69
-52 107 -52 l25 0 -21 47 c-14 31 -22 77 -26 134 l-5 88 34 20 c45 27 73 26
96 -3 14 -19 22 -22 41 -15 28 11 31 68 4 92 -48 43 -111 44 -162 0 l-30 -25
0 26 c0 32 -34 56 -82 56 l-37 0 15 -42z"/>
<path d="M4131 4096 c-55 -18 -118 -79 -131 -126 -35 -125 35 -286 186 -429
154 -147 264 -159 325 -34 32 65 38 210 15 317 -17 76 -67 167 -117 213 -63
57 -196 85 -278 59z m177 -113 c38 -18 74 -59 104 -117 17 -31 23 -64 25 -136
5 -109 -11 -155 -60 -178 -42 -20 -106 7 -170 73 -73 74 -101 133 -105 225 -3
66 -1 78 19 104 44 56 108 66 187 29z"/>
<path d="M2265 3844 c-160 -22 -281 -72 -360 -150 -60 -58 -92 -122 -101 -201
-15 -129 -58 -171 -216 -207 -218 -50 -278 -59 -335 -47 -141 28 -273 135
-273 221 0 18 -6 20 -60 20 l-60 0 0 -116 c0 -134 15 -127 -135 -62 -49 22
-96 42 -103 45 -9 4 -12 -11 -12 -56 0 -71 5 -69 -118 -42 l-82 18 0 -83 c0
-78 -1 -82 -24 -88 -13 -3 -42 -24 -65 -47 -75 -76 -71 9 -71 -1399 0 -1408
-4 -1323 71 -1399 75 -74 24 -71 1105 -71 l963 0 7 -35 c8 -44 52 -90 95 -99
41 -8 617 -8 658 0 43 9 87 55 95 99 l7 35 958 0 c1075 0 1025 -3 1100 71 75
76 71 -9 71 1399 0 1084 -2 1263 -15 1307 -17 56 -70 118 -122 139 l-33 14 0
79 0 78 -87 -18 c-130 -27 -123 -29 -123 42 0 45 -3 60 -12 56 -7 -3 -53 -23
-103 -45 -49 -21 -102 -42 -117 -46 l-28 -6 0 110 0 110 -60 0 c-47 0 -60 -3
-60 -15 0 -28 -38 -91 -75 -123 -47 -42 -101 -69 -176 -88 -56 -14 -69 -14
-153 1 -211 39 -306 66 -343 98 -43 38 -72 98 -73 148 -1 140 -142 279 -336
330 -93 24 -248 29 -339 10 -92 -20 -213 -81 -270 -137 l-50 -49 -50 49 c-57
56 -178 118 -265 135 -67 13 -184 21 -225 15z m220 -134 c86 -22 132 -46 188
-99 72 -67 67 19 67 -1252 l0 -1148 -63 39 c-96 58 -182 82 -318 87 -96 5
-130 2 -200 -16 -207 -52 -336 -172 -355 -328 -8 -70 -23 -103 -63 -146 -105
-111 -316 -156 -506 -107 -86 22 -132 46 -188 99 -72 67 -67 -19 -67 1252 l0
1149 57 -37 c90 -58 188 -85 324 -91 96 -4 130 -1 200 17 207 52 336 172 355
328 8 70 23 103 63 146 105 111 315 156 506 107z m917 9 c111 -24 216 -86 257
-153 11 -18 25 -66 31 -106 18 -127 89 -219 218 -284 202 -102 518 -83 679 40
l33 25 -2 -1164 -3 -1163 -25 -38 c-14 -20 -49 -53 -79 -73 -144 -96 -389
-110 -545 -31 -108 55 -151 111 -166 218 -19 133 -89 222 -227 286 -206 97
-469 84 -649 -31 l-54 -35 0 1149 c0 785 3 1159 11 1178 26 70 140 149 257
177 71 18 194 20 264 5z m-2595 -573 l53 -17 2 -1112 3 -1112 25 -50 c32 -66
107 -138 189 -181 l66 -35 -89 6 c-100 6 -184 23 -269 55 l-57 21 0 1226 c0
976 3 1224 13 1221 6 -3 36 -13 64 -22z m4073 -1200 l0 -1225 -57 -21 c-79
-30 -171 -48 -278 -56 l-90 -6 64 33 c81 42 165 123 194 186 l22 48 3 1112 2
1111 63 20 c34 11 65 20 70 21 4 1 7 -550 7 -1223z m-4292 1168 l22 -6 0
-1228 0 -1227 79 -36 c96 -44 214 -76 323 -86 l83 -8 -120 -2 c-127 -1 -306
12 -392 30 l-53 10 0 1280 c0 1211 1 1279 18 1279 9 0 27 -3 40 -6z m4502
-1273 l0 -1278 -57 -11 c-92 -18 -269 -32 -388 -31 l-110 1 90 13 c121 17 204
40 297 82 l78 36 0 1228 0 1228 23 4 c12 2 32 5 45 6 l22 1 0 -1279z m170
-111 l0 -1199 -25 -28 -24 -28 0 1255 0 1255 24 -28 25 -28 0 -1199z m-4850
-2 c-1 -1237 -1 -1243 -20 -1219 -20 23 -20 45 -20 1220 0 1067 2 1199 16
1219 8 12 17 22 20 22 2 0 4 -559 4 -1242z m2031 -512 c129 -23 240 -89 279
-167 17 -31 20 -59 20 -155 0 -106 -1 -116 -17 -109 -89 34 -273 65 -384 65
-80 0 -278 -27 -398 -54 l-101 -23 17 26 c35 53 53 101 59 158 4 32 15 74 25
95 37 73 150 141 274 163 91 17 134 17 226 1z m1002 -13 c149 -44 247 -142
247 -246 0 -42 23 -109 50 -148 12 -16 18 -29 13 -29 -4 0 -62 11 -128 25
-260 53 -451 56 -628 10 -51 -13 -100 -26 -109 -30 -17 -7 -18 2 -18 109 0 96
3 124 20 155 71 141 343 216 553 154z m-848 -501 c123 -34 145 -46 145 -83 0
-31 -1 -31 -37 -26 -245 39 -612 35 -1008 -12 -289 -34 -323 -36 -220 -15 39
9 180 42 315 74 135 32 277 63 315 69 39 6 81 13 95 15 14 3 93 3 175 1 110
-2 169 -8 220 -23z m986 -6 c69 -14 215 -48 325 -75 109 -27 221 -52 247 -56
26 -4 46 -9 44 -11 -2 -2 -102 7 -223 20 -358 41 -432 46 -651 47 -137 0 -245
-5 -317 -15 -60 -9 -113 -16 -118 -16 -4 0 -8 15 -8 34 0 30 4 35 43 49 39 15
129 39 187 51 14 2 97 3 185 1 122 -2 190 -9 286 -29z m-1070 -196 c57 -6 134
-15 172 -22 l67 -11 0 -49 0 -48 60 0 60 0 0 48 0 49 63 11 c210 38 524 39
832 2 l150 -17 -392 -2 -393 -1 0 -65 0 -65 -310 0 -310 0 0 65 0 65 -402 1
c-396 1 -401 2 -288 15 266 33 515 41 691 24z m-1103 -157 c971 -3 982 -4 982
-23 0 -20 -10 -20 -975 -20 l-975 0 -32 31 c-31 29 -31 30 -8 23 14 -5 467
-10 1008 -11z m3814 -13 l-32 -30 -970 0 c-963 0 -970 0 -970 20 0 20 7 20
963 21 529 1 973 5 987 9 49 16 55 10 22 -20z m-2092 -145 l0 -25 -310 0 -310
0 0 25 0 25 310 0 310 0 0 -25z"/>
<path d="M1775 2768 c-18 -46 -385 -1154 -385 -1161 0 -4 37 -7 81 -5 l82 3
40 128 40 127 247 0 247 0 42 -130 42 -130 86 0 c64 0 84 3 81 13 -2 6 -89
272 -193 590 l-189 577 -108 0 c-78 0 -110 -4 -113 -12z m205 -448 c50 -157
93 -293 96 -302 5 -17 -9 -18 -196 -18 -158 0 -201 3 -197 13 2 6 44 136 92
287 96 303 106 330 111 315 2 -5 44 -138 94 -295z"/>
<path d="M3658 2860 l5 -80 -277 0 -276 0 0 -180 0 -180 75 0 75 0 0 110 0
110 490 0 490 0 0 -110 0 -110 80 0 80 0 0 180 0 180 -290 0 -290 0 0 44 c0
25 4 56 10 71 12 31 12 31 -96 39 l-81 6 5 -80z"/>
<path d="M3698 2513 l-358 -3 0 -70 0 -70 291 0 c331 0 313 7 205 -82 -57 -48
-61 -50 -113 -46 l-55 3 7 -62 7 -63 -301 0 -301 0 0 -76 0 -77 160 8 c87 4
222 4 300 0 l140 -8 0 -123 c0 -159 0 -159 -128 -151 -85 5 -93 4 -86 -11 4
-9 17 -44 29 -77 l23 -60 110 2 c199 3 212 18 212 261 l0 159 180 6 c98 4 231
4 294 0 l115 -6 6 25 c3 13 5 47 3 74 l-3 49 -298 3 c-164 1 -297 6 -295 11 3
7 53 47 271 212 40 31 67 59 67 70 0 27 -82 110 -106 107 -10 -2 -180 -4 -376
-5z"/>
</g>
</svg>
